<?xml version="1.0" encoding="UTF-8"?>
<svg version="1.1" xmlns="http://www.w3.org/2000/svg" width="512" height="512">
<defs>
  <linearGradient id="grad" x1="0%" y1="0%" x2="100%" y2="100%">
    <stop offset="0%" stop-color="#ec4899" />
    <stop offset="100%" stop-color="#8b5cf6" />
  </linearGradient>
</defs>
<path d="M0 0 C2.60333771 1.34425485 5.22165487 2.62050574 7.87695312 3.85791016 C16.33667582 7.81578065 22.80359798 11.54450707 27.89257812 19.58837891 C30.90183143 28.21362722 29.74416618 36.79908241 25.97460938 44.87744141 C25.66510849 45.56169693 25.3556076 46.24595245 25.03672791 46.95094299 C21.25057649 55.22856499 17.13510837 63.34720179 13.01757812 71.46337891 C11.48468235 74.49184608 9.9546597 77.5217408 8.42773438 80.55322266 C8.05742096 81.28826019 7.68710754 82.02329773 7.30557251 82.78060913 C3.37259241 90.62537511 -0.35043138 98.56662435 -4.04492188 106.52587891 C-3.07554687 107.16525391 -2.10617187 107.80462891 -1.10742188 108.46337891 C1.95507812 110.52587891 1.95507812 110.52587891 2.95507812 111.52587891 C3.1951021 113.3483953 3.37624652 115.17871299 3.53320312 117.01025391 C6.16638887 145.61740778 12.46887788 170.75438991 26.79882812 195.74072266 C31.22700583 203.68846613 32.73227864 210.92171404 30.32226562 219.87744141 C27.54599212 226.35541291 22.0669852 231.14945847 15.70507812 233.96337891 C12.95507812 234.52587891 12.95507812 234.52587891 8.95507812 234.52587891 C8.98859375 235.65896484 9.02210938 236.79205078 9.05664062 237.95947266 C9.02550772 261.57377806 -3.34514519 286.4480654 -19.04492188 303.52587891 C-19.51381836 304.0424707 -19.98271484 304.5590625 -20.46582031 305.09130859 C-40.07096355 326.47296967 -67.03834759 339.55225056 -96.04492188 341.52587891 C-100.75433024 341.63816349 -105.45953702 341.62115996 -110.16992188 341.58837891 C-112.03390625 341.58161133 -112.03390625 341.58161133 -113.93554688 341.57470703 C-116.97205689 341.56302815 -120.00846275 341.54665031 -123.04492188 341.52587891 C-123.02397461 342.59547852 -123.00302734 343.66507812 -122.98144531 344.76708984 C-122.90897562 348.74026064 -122.86309724 352.71337316 -122.82519531 356.68701172 C-122.8050956 358.4058617 -122.77781099 360.12464343 -122.74316406 361.84326172 C-122.69457154 364.3157638 -122.67193753 366.78736101 -122.65429688 369.26025391 C-122.63365173 370.02706482 -122.61300659 370.79387573 -122.59173584 371.58392334 C-122.59032635 374.94500291 -122.65735264 377.02377544 -124.74553585 379.72905731 C-127.51278934 381.89148709 -128.81346277 382.02812569 -132.28919983 382.03381348 C-133.88121971 382.05073242 -133.88121971 382.05073242 -135.50540161 382.06799316 C-137.24404984 382.05584778 -137.24404984 382.05584778 -139.01782227 382.04345703 C-140.85489494 382.05397095 -140.85489494 382.05397095 -142.7290802 382.06469727 C-146.08465693 382.07928605 -149.43924713 382.07586798 -152.79476857 382.06318092 C-156.3060992 382.05305101 -159.8173878 382.06244635 -163.32872009 382.06872559 C-169.2241879 382.0760011 -175.11945521 382.06641598 -181.01489258 382.04736328 C-187.83266248 382.02558439 -194.6499541 382.03265326 -201.46771246 382.0546689 C-207.32091178 382.07281378 -213.17396703 382.07538608 -219.02718538 382.06491423 C-222.52330553 382.05867547 -226.01920074 382.05785406 -229.51530647 382.07106018 C-233.41086591 382.08474771 -237.30588829 382.06578382 -241.20141602 382.04345703 C-242.36253906 382.05155396 -243.52366211 382.05965088 -244.7199707 382.06799316 C-245.77849747 382.05671387 -246.83702423 382.04543457 -247.92762756 382.03381348 C-248.84883424 382.03230537 -249.77004091 382.03079727 -250.71916294 382.02924347 C-253.04492188 381.52587891 -253.04492188 381.52587891 -254.8401022 379.7075882 C-256.5874678 376.54342692 -256.47941278 373.49825029 -256.46484375 369.97509766 C-256.47331329 369.22016022 -256.48178284 368.46522278 -256.49050903 367.68740845 C-256.51387816 365.1958932 -256.51490137 362.70499538 -256.51367188 360.21337891 C-256.5207727 358.47989657 -256.52847158 356.7464166 -256.53674316 355.01293945 C-256.55018714 351.38144392 -256.55175678 347.7501658 -256.54589844 344.11865234 C-256.53999738 339.46434299 -256.57061033 334.81107498 -256.61101532 330.15696716 C-256.6368584 326.57786435 -256.63977295 322.99901358 -256.63612366 319.41983032 C-256.6378176 317.70380024 -256.64748646 315.98775886 -256.66526794 314.27182007 C-256.68739595 311.8727227 -256.67779026 309.47575001 -256.66015625 307.07666016 C-256.67341949 306.36796783 -256.68668274 305.65927551 -256.7003479 304.92910767 C-256.63718174 301.23215611 -256.3246694 299.80740018 -253.67687988 297.14282227 C-250.98201925 295.48723468 -248.29505941 294.09332737 -245.41992188 292.77587891 C-234.97969878 287.67091688 -226.45543102 280.45739758 -218.04492188 272.52587891 C-217.36816406 271.91357422 -216.69140625 271.30126953 -215.99414062 270.67041016 C-207.68112664 262.85717657 -200.63950484 252.96811291 -196.04492188 242.52587891 C-196.91503906 242.16236328 -196.91503906 242.16236328 -197.80273438 241.79150391 C-211.96993744 235.71316596 -219.03948999 227.45373082 -225.04492188 213.52587891 C-228.4620611 203.45223148 -226.19082763 190.96006072 -222.04492188 181.52587891 C-220.32060103 178.54931353 -218.36104888 176.06072008 -216.04492188 173.52587891 C-215.54347656 172.92259766 -215.04203125 172.31931641 -214.52539062 171.69775391 C-208.14593497 164.55773054 -198.86183463 159.89821015 -189.32226562 159.28759766 C-177.0563592 158.97330504 -168.09024263 160.81952059 -158.01757812 168.25634766 C-156.00479764 169.55170143 -154.38315459 170.09171042 -152.04492188 170.52587891 C-139.76692946 156.94171709 -134.01785985 141.36350678 -131.04492188 123.52587891 C-186.15492188 123.52587891 -241.26492187 123.52587891 -298.04492188 123.52587891 C-298.37492187 127.48587891 -298.70492187 131.44587891 -299.04492188 135.52587891 C-299.37900088 138.18777435 -299.72535864 140.84817785 -300.08789062 143.50634766 C-301.20143347 152.41234345 -301.38325129 161.25939003 -301.3605957 170.22680664 C-301.35743659 172.82627442 -301.3810138 175.42459728 -301.40625 178.02392578 C-301.53185065 211.19988305 -292.96962432 243.87572927 -272.76757812 270.55322266 C-270.81506995 273.9225168 -270.5163264 275.69756625 -271.04492188 279.52587891 C-273.50086312 282.84862295 -274.97058627 284.30205899 -279.04492188 285.15087891 C-285.80882124 283.74173321 -290.15174728 275.88063695 -294.04492188 270.52587891 C-309.90846976 245.56733563 -318.09779754 215.13512713 -318.24804688 185.64697266 C-318.25501587 184.72519226 -318.26198486 183.80341187 -318.26916504 182.85369873 C-318.28648481 179.89021198 -318.29288588 176.92691418 -318.29492188 173.96337891 C-318.29592896 172.95377106 -318.29693604 171.94416321 -318.29797363 170.90396118 C-318.28784147 155.91358203 -317.91567345 141.28627599 -315.04492188 126.52587891 C-314.89506836 125.71376953 -314.74521484 124.90166016 -314.59082031 124.06494141 C-312.21095876 111.57445787 -312.21095876 111.57445787 -308.91210938 108.60791016 C-305.08100216 107.16211084 -302.12595243 107.31836888 -298.04492188 107.52587891 C-298.38338135 106.64440186 -298.72184082 105.7629248 -299.07055664 104.85473633 C-300.33172002 101.53795712 -301.57202501 98.21479741 -302.79956055 94.88549805 C-303.33192607 93.4541121 -303.87211966 92.02560968 -304.4206543 90.6003418 C-305.21401884 88.53469585 -305.9773562 86.45984041 -306.73632812 84.38134766 C-307.10498741 83.44937813 -307.10498741 83.44937813 -307.48109436 82.49858093 C-311.17639112 72.10206946 -307.1783504 60.42037446 -304.99023438 50.00634766 C-304.68466942 48.53434825 -304.37940776 47.06228585 -304.07443237 45.59016418 C-303.43805436 42.52594072 -302.79704406 39.46273213 -302.15283203 36.40014648 C-301.33034002 32.48743739 -300.52118243 28.57210468 -299.71562386 24.65587902 C-299.09009614 21.62366811 -298.45675962 18.59312786 -297.82116318 15.56301308 C-297.51958745 14.11994273 -297.22058704 12.67633156 -296.9242897 11.2321682 C-296.50915755 9.21394985 -296.08332475 7.19826936 -295.65478516 5.18286133 C-295.4157547 4.03911545 -295.17672424 2.89536957 -294.93045044 1.71696472 C-293.99792052 -1.64349492 -292.78429652 -4.45444261 -291.04492188 -7.47412109 C-287.77410687 -9.1095286 -284.5681752 -9.12763416 -281.04492188 -8.47412109 C-278.24307287 -6.86922082 -276.04676082 -4.77216355 -273.73242188 -2.53662109 C-272.41584139 -1.32966049 -271.09812688 -0.12393577 -269.77929688 1.08056641 C-269.14185547 1.67321289 -268.50441406 2.26585937 -267.84765625 2.87646484 C-265.47226131 5.04983541 -262.99390739 7.07473223 -260.48242188 9.08837891 C-255.65786079 12.99534145 -250.94833699 17.02264934 -246.24707031 21.07592773 C-241.842112 24.86518475 -237.36967017 28.56050181 -232.83789062 32.19775391 C-231.91621094 32.96603516 -230.99453125 33.73431641 -230.04492188 34.52587891 C-229.35285645 34.99985107 -228.66079102 35.47382324 -227.94775391 35.9621582 C-219.6833097 42.18439965 -217.5696953 50.3715208 -214.54492188 59.83837891 C-213.99514534 61.48791295 -213.44279183 63.13659021 -212.88793945 64.78442383 C-211.77682547 68.0995139 -210.68185925 71.41921141 -209.60205078 74.74462891 C-208.16798223 79.16083629 -206.69834382 83.56422378 -205.21289062 87.96337891 C-203.12723898 94.14181619 -201.08647829 100.33200437 -199.04492188 106.52587891 C-184.19492187 107.02087891 -184.19492187 107.02087891 -169.04492188 107.52587891 C-169.068125 104.33544922 -169.09132812 101.14501953 -169.11523438 97.85791016 C-169.13083777 94.76343178 -169.14297861 91.66895781 -169.15478516 88.57446289 C-169.16483452 86.42600539 -169.1784762 84.27756154 -169.19580078 82.12915039 C-169.22009563 79.03870268 -169.23141573 75.94843603 -169.24023438 72.85791016 C-169.25055695 71.89939651 -169.26087952 70.94088287 -169.27151489 69.95332336 C-169.27294656 61.41841447 -169.27294656 61.41841447 -167.04492188 57.52587891 C-164.14143616 55.10630748 -162.71841257 54.49893928 -158.91992188 54.65087891 C-155.90136003 55.56957164 -154.92649893 56.07471193 -153.04492188 58.52587891 C-152.68415833 60.74687195 -152.68415833 60.74687195 -152.7043457 63.36450195 C-152.7045723 64.34529221 -152.70479889 65.32608246 -152.70503235 66.33659363 C-152.7205162 67.39292496 -152.73600006 68.44925629 -152.75195312 69.53759766 C-152.75619797 70.62095901 -152.76044281 71.70432037 -152.76481628 72.82051086 C-152.78162618 76.28505168 -152.81928339 79.74901353 -152.85742188 83.21337891 C-152.87246569 85.56037572 -152.88615462 87.90738164 -152.8984375 90.25439453 C-152.93153741 96.0117795 -152.98333628 101.768731 -153.04492188 107.52587891 C-149.08492187 107.52587891 -145.12492188 107.52587891 -141.04492188 107.52587891 C-141.05539551 106.15858643 -141.06586914 104.79129395 -141.07666016 103.38256836 C-141.11289202 98.30414453 -141.13583406 93.2257321 -141.15478516 88.1472168 C-141.16483544 85.95025714 -141.17847779 83.75331083 -141.19580078 81.55639648 C-141.22009157 78.39645083 -141.23141482 75.23668223 -141.24023438 72.07666016 C-141.25055695 71.09627274 -141.26087952 70.11588531 -141.27151489 69.10578918 C-141.27293493 60.45201804 -141.27293493 60.45201804 -139.04492188 56.52587891 C-136.38518617 54.35868685 -134.95654591 54.53053027 -131.48242188 54.71337891 C-128.00897951 55.53437438 -127.09534486 55.77674253 -125.04492188 58.52587891 C-124.68415833 60.74687195 -124.68415833 60.74687195 -124.7043457 63.36450195 C-124.7045723 64.34529221 -124.70479889 65.32608246 -124.70503235 66.33659363 C-124.7205162 67.39292496 -124.73600006 68.44925629 -124.75195312 69.53759766 C-124.75619797 70.62095901 -124.76044281 71.70432037 -124.76481628 72.82051086 C-124.78162618 76.28505168 -124.81928339 79.74901353 -124.85742188 83.21337891 C-124.87246569 85.56037572 -124.88615462 87.90738164 -124.8984375 90.25439453 C-124.92898701 96.01195918 -124.98770603 101.76827002 -125.04492188 107.52587891 C-117.78492188 107.52587891 -110.52492188 107.52587891 -103.04492188 107.52587891 C-102.38492188 105.54587891 -101.72492188 103.56587891 -101.04492188 101.52587891 C-100.50811877 100.30460486 -99.94305585 99.09502825 -99.34008789 97.9050293 C-99.01495712 97.25810623 -98.68982635 96.61118317 -98.35484314 95.94465637 C-98.00635818 95.26118637 -97.65787323 94.57771637 -97.29882812 93.87353516 C-96.93193375 93.14531052 -96.56503937 92.41708588 -96.18702698 91.66679382 C-95.40313325 90.11137837 -94.61753832 88.5568193 -93.8303833 87.00305176 C-91.76648843 82.92800015 -89.71598092 78.84623267 -87.66601562 74.76416016 C-87.05929016 73.55661575 -87.05929016 73.55661575 -86.44030762 72.32467651 C-83.27393836 66.01081437 -80.19040185 59.66090793 -77.16992188 53.27587891 C-73.01338779 44.49134465 -68.70747836 35.79018825 -64.32397461 27.11669922 C-61.67621802 21.86023209 -59.13153553 16.58027485 -56.71972656 11.21166992 C-52.94855298 2.86267955 -49.31650336 -4.4687966 -40.98242188 -8.97412109 C-25.4006722 -14.57421748 -13.69211682 -7.1618673 0 0 Z M-36.73724365 8.82843018 C-39.43243909 12.32696368 -41.24967782 16.31324164 -43.17773438 20.26806641 C-43.65508026 21.22746124 -44.13242615 22.18685608 -44.62423706 23.17532349 C-46.14890987 26.24593437 -47.65940926 29.32328198 -49.16992188 32.40087891 C-50.16122417 34.40001601 -51.15340444 36.39871801 -52.14648438 38.39697266 C-57.61461808 49.42568883 -62.96663393 60.50721774 -68.25964355 71.62089539 C-72.12814479 79.73283252 -76.14185064 87.76178074 -80.22851562 95.76611328 C-80.96134766 97.2153418 -80.96134766 97.2153418 -81.70898438 98.69384766 C-82.3502124 99.95104614 -82.3502124 99.95104614 -83.00439453 101.23364258 C-84.22720659 103.74458098 -84.22720659 103.74458098 -85.04492188 107.52587891 C-64.58492187 107.52587891 -44.12492187 107.52587891 -23.04492188 107.52587891 C-21.39492188 104.22587891 -19.74492187 100.92587891 -18.04492188 97.52587891 C-19.60984375 96.75501953 -21.17476563 95.98416016 -22.78710938 95.18994141 C-24.83148476 94.17713158 -26.8757499 93.16409921 -28.91992188 92.15087891 C-30.46873047 91.38904297 -30.46873047 91.38904297 -32.04882812 90.61181641 C-33.03496094 90.12197266 -34.02109375 89.63212891 -35.03710938 89.12744141 C-35.94831543 88.6770752 -36.85952148 88.22670898 -37.79833984 87.76269531 C-40.04492188 86.52587891 -40.04492188 86.52587891 -42.04492188 84.52587891 C-42.5973183 77.56568394 -42.5973183 77.56568394 -40.98242188 74.52587891 C-37.99142518 72.98213868 -35.29365248 72.99963702 -32.04492188 73.52587891 C-28.41974556 74.92165323 -25.03283431 76.70096516 -21.60742188 78.52587891 C-20.68509766 79.00283203 -19.76277344 79.47978516 -18.8125 79.97119141 C-16.54973984 81.14360599 -14.29459561 82.32860031 -12.04492188 83.52587891 C-9.88360747 80.79636989 -8.25315667 78.13194773 -6.78320312 74.97900391 C-6.38681641 74.13466797 -5.99042969 73.29033203 -5.58203125 72.42041016 C-5.17791016 71.54771484 -4.77378906 70.67501953 -4.35742188 69.77587891 C-3.94169922 68.88771484 -3.52597656 67.99955078 -3.09765625 67.08447266 C-2.07595975 64.900156 -1.05854252 62.71395182 -0.04492188 60.52587891 C-1.11613281 59.95998047 -2.18734375 59.39408203 -3.29101562 58.81103516 C-4.68820168 58.07024524 -6.08533434 57.32935461 -7.48242188 56.58837891 C-8.18947266 56.21519531 -8.89652344 55.84201172 -9.625 55.45751953 C-14.93164062 52.63916016 -14.93164062 52.63916016 -16.04492188 51.52587891 C-16.40888164 47.66790535 -16.60499722 45.36599193 -14.41992188 42.08837891 C-11.31831184 40.04784599 -9.72936256 40.20568347 -6.04492188 40.52587891 C-2.61523438 41.83837891 -2.61523438 41.83837891 0.83007812 43.52587891 C1.9825 44.08275391 3.13492188 44.63962891 4.32226562 45.21337891 C5.62550781 45.86306641 5.62550781 45.86306641 6.95507812 46.52587891 C12.34621577 37.56474633 12.34621577 37.56474633 12.95507812 27.52587891 C10.09180047 23.16540604 6.78669016 21.02767475 2.17773438 18.82666016 C1.20518959 18.34497627 1.20518959 18.34497627 0.21299744 17.8535614 C-1.84675472 16.83707381 -3.9143448 15.83780073 -5.98242188 14.83837891 C-7.36771451 14.15650583 -8.75248592 13.47357275 -10.13671875 12.78955078 C-23.65859159 4.76367771 -23.65859159 4.76367771 -36.73724365 8.82843018 Z M-283.04492188 27.52587891 C-285.18842896 31.8892521 -285.9402211 36.32555894 -286.65625 41.0859375 C-287.07557719 43.71832187 -287.60218339 46.31274283 -288.15429688 48.92041016 C-288.89262334 52.41682398 -289.62257354 55.91369589 -290.31054688 59.42041016 C-290.45266602 60.14075439 -290.59478516 60.86109863 -290.74121094 61.60327148 C-291.12293859 63.6953468 -291.12293859 63.6953468 -291.04492188 66.52587891 C-287.08496279 67.03895821 -283.1232631 67.48553314 -279.14916992 67.87475586 C-277.14378477 68.08457435 -275.14388258 68.34482933 -273.14453125 68.60595703 C-265.83134739 69.39173277 -265.83134739 69.39173277 -259.24682617 66.67895508 C-256.9842152 64.40331251 -255.03136339 62.04203816 -253.04492188 59.52587891 C-251.63529564 58.22419634 -250.20145438 56.9476265 -248.73242188 55.71337891 C-246.05512656 53.41550069 -243.49090232 51.0737752 -241.04492188 48.52587891 C-242.54717034 44.78694939 -244.64657485 42.98494285 -247.79492188 40.52587891 C-251.18808114 37.83738367 -254.5279205 35.13073948 -257.77929688 32.27197266 C-258.71757324 31.44922852 -258.71757324 31.44922852 -259.67480469 30.60986328 C-260.90806303 29.52408074 -262.13670754 28.43303199 -263.36035156 27.33642578 C-269.56578034 21.9044682 -276.24365106 22.9979871 -283.04492188 27.52587891 Z M-234.49023438 63.81103516 C-235.32167969 64.69082031 -235.32167969 64.69082031 -236.16992188 65.58837891 C-239.38518718 68.91823438 -242.77353356 71.90954943 -246.34570312 74.85009766 C-248.27809353 76.7558344 -249.16369552 77.94979625 -250.04492188 80.52587891 C-249.49133201 83.56936788 -249.49133201 83.56936788 -248.27148438 86.82275391 C-247.85898438 88.02802734 -247.44648438 89.23330078 -247.02148438 90.47509766 C-246.57128642 91.74213951 -246.12076138 93.00906519 -245.66992188 94.27587891 C-245.22583965 95.55795593 -244.78311505 96.84050406 -244.34179688 98.12353516 C-243.25620717 101.2623054 -242.1522819 104.39472298 -241.04492188 107.52587891 C-232.79492188 107.52587891 -224.54492188 107.52587891 -216.04492188 107.52587891 C-217.69723655 102.40242256 -219.3507067 97.27936816 -221.00708008 92.15722656 C-221.56927587 90.41753484 -222.13081073 88.67762938 -222.69165039 86.9375 C-223.5016451 84.42471642 -224.31407717 81.91273168 -225.12695312 79.40087891 C-225.37395462 78.63283936 -225.62095612 77.8647998 -225.8754425 77.07348633 C-227.46605652 72.16846743 -229.20291753 67.34232607 -231.04492188 62.52587891 C-233.11816448 62.30438251 -233.11816448 62.30438251 -234.49023438 63.81103516 Z M-289.04492188 82.52587891 C-286.89621977 91.08574909 -284.07774113 99.24710203 -281.04492188 107.52587891 C-273.45492187 107.52587891 -265.86492187 107.52587891 -258.04492188 107.52587891 C-259.35525131 101.62939643 -260.7096577 96.12193218 -262.66992188 90.46337891 C-263.01410156 89.45114258 -263.01410156 89.45114258 -263.36523438 88.41845703 C-263.92091152 86.78615542 -264.48228907 85.15579607 -265.04492188 83.52587891 C-273.05888434 82.87921911 -281.00279432 82.35910668 -289.04492188 82.52587891 Z M-115.04492188 123.52587891 C-116.03492188 129.46587891 -117.02492188 135.40587891 -118.04492188 141.52587891 C-123.64478682 160.05876527 -132.72104854 179.12583685 -149.94335938 189.62353516 C-153.39597894 191.10597962 -155.57753362 190.817651 -159.04492188 189.52587891 C-160.43001712 187.90197413 -161.75251137 186.22447557 -163.04492188 184.52587891 C-171.87902103 177.51588555 -178.65508658 174.3796407 -190.04492188 175.52587891 C-197.62845749 177.47726635 -203.13897979 182.05519878 -207.36523438 188.55712891 C-210.9227888 195.42345772 -211.48180266 202.87753645 -209.19726562 210.26806641 C-205.86452209 217.7017791 -200.81477729 222.46312783 -193.73242188 226.33837891 C-189.66855843 227.64708069 -185.72928335 228.28909197 -181.49804688 228.80322266 C-179.04492188 229.52587891 -179.04492188 229.52587891 -177.15429688 231.15478516 C-175.51241699 234.66401435 -176.13117002 236.79277302 -177.04492188 240.52587891 C-178.08445633 243.20451908 -179.33852183 245.7314668 -180.66992188 248.27587891 C-181.02892578 248.97471191 -181.38792969 249.67354492 -181.7578125 250.39355469 C-195.24308454 276.26410965 -214.7700548 294.48428609 -240.04492188 308.52587891 C-240.04492188 327.66587891 -240.04492188 346.80587891 -240.04492188 366.52587891 C-206.71492188 366.52587891 -173.38492188 366.52587891 -139.04492188 366.52587891 C-138.71492188 354.97587891 -138.38492188 343.42587891 -138.04492188 331.52587891 C-136.04492188 327.52587891 -136.04492188 327.52587891 -134.04492188 326.52587891 C-131.40128482 326.40487065 -128.7796283 326.34010066 -126.13476562 326.31494141 C-124.48697042 326.28680339 -122.83918413 326.25813878 -121.19140625 326.22900391 C-118.61190731 326.18829411 -116.03256256 326.15140156 -113.45288086 326.12451172 C-85.59770944 325.80942641 -60.24220196 319.71759392 -39.04492188 300.52587891 C-38.12839844 299.70345703 -37.211875 298.88103516 -36.26757812 298.03369141 C-17.98103786 280.74739668 -7.57604267 257.31353838 -6.48242188 232.21337891 C-6.44955078 230.45574219 -6.44955078 230.45574219 -6.41601562 228.66259766 C-6.00543543 225.19211452 -5.11960295 223.31071976 -3.04492188 220.52587891 C-0.37867653 219.19275623 1.8550484 219.37771366 4.83007812 219.27587891 C9.6760934 218.91435227 9.6760934 218.91435227 13.76757812 216.40087891 C15.26143108 212.78418228 14.98989491 210.20042644 13.95507812 206.52587891 C12.47914464 203.29267021 10.71036199 200.23916691 8.95507812 197.15087891 C-3.87167753 173.57317998 -9.10227217 150.00972623 -12.04492188 123.52587891 C-46.03492188 123.52587891 -80.02492188 123.52587891 -115.04492188 123.52587891 Z " fill="url(#grad)" transform="translate(400.044921875,130.47412109375)"/>
<path d="M0 0 C2.38984936 1.5892045 3.99325718 2.86480547 5.9375 4.875 C6.44837158 5.37604248 6.95924316 5.87708496 7.4855957 6.39331055 C9.01328052 7.90809545 10.50825876 9.44990834 12 11 C12.80953125 11.81339844 13.6190625 12.62679688 14.453125 13.46484375 C30.88995704 30.73501168 41.26027649 53.86252832 41.03515625 77.78125 C41.03886741 79.69401579 41.04479428 81.60677834 41.05273438 83.51953125 C41.06330668 86.5156723 41.06237979 89.50942555 41.02416992 92.50537109 C40.99102519 95.41113876 41.00863205 98.31299139 41.03515625 101.21875 C41.01260269 102.10953247 40.99004913 103.00031494 40.96681213 103.91809082 C41.05670753 108.85666254 41.05670753 108.85666254 43.75973511 112.81445312 C45.86429575 114.40495736 45.86429575 114.40495736 48.04588318 115.68347168 C51.81386121 118.22203526 53.51935888 122.03670197 54.58857727 126.40419006 C54.9954737 128.97144196 55.13349415 131.37287806 55.14526367 133.97045898 C55.15164352 134.93173203 55.15802338 135.89300507 55.16459656 136.88340759 C55.16570938 137.91059402 55.1668222 138.93778046 55.16796875 139.99609375 C55.17296135 141.59554588 55.17296135 141.59554588 55.17805481 143.22731018 C55.18311018 145.47909108 55.18546356 147.73087945 55.18530273 149.98266602 C55.18748983 153.42151248 55.2056622 156.86003835 55.22460938 160.29882812 C55.22754348 162.48958224 55.22952816 164.68033787 55.23046875 166.87109375 C55.23765427 167.89625595 55.24483978 168.92141815 55.25224304 169.97764587 C55.21562532 181.45613389 55.21562532 181.45613389 51.3125 185.9375 C47.62130124 187.63345619 45.86506928 187.28835643 42 186 C38.95652351 183.29202486 36.50397212 180.2033237 34 177 C32.9790625 175.74896484 32.9790625 175.74896484 31.9375 174.47265625 C27 168.33064516 27 168.33064516 27 166 C26.35675781 166.45890625 25.71351563 166.9178125 25.05078125 167.390625 C12.83903993 175.68276319 0.58381323 178.6444122 -14 177 C-22.75430846 175.28167465 -29.76127817 171.07280506 -37 166 C-37.23074219 166.5259375 -37.46148437 167.051875 -37.69921875 167.59375 C-39.43184307 170.79884484 -41.59645539 173.62142659 -43.8125 176.5 C-44.45155273 177.35271484 -44.45155273 177.35271484 -45.10351562 178.22265625 C-48.37128752 182.48410765 -51.49376303 186.53008057 -57 187.5625 C-61.24739999 186.7661125 -62.42594178 185.48160449 -65 182 C-65.71791123 178.21084781 -65.62915 174.48257112 -65.55859375 170.63671875 C-65.55626236 169.53076859 -65.55393097 168.42481842 -65.55152893 167.28535461 C-65.54179555 164.94772626 -65.52001813 162.61012136 -65.48706055 160.27270508 C-65.43782128 156.71074121 -65.42558762 153.15016355 -65.41992188 149.58789062 C-65.405828 147.31248544 -65.38962078 145.03709216 -65.37109375 142.76171875 C-65.36573105 141.70313156 -65.36036835 140.64454437 -65.35484314 139.55387878 C-65.20920396 130.40494048 -64.40401815 122.25159713 -57.4765625 115.51953125 C-53.43452381 112 -53.43452381 112 -51 112 C-51.01047363 111.20118408 -51.02094727 110.40236816 -51.03173828 109.5793457 C-51.67420974 52.891405 -51.67420974 52.891405 -35 29 C-31.48175489 26.65450326 -30.14224306 26.42008597 -26 27 C-23.125 29.125 -23.125 29.125 -21 32 C-20.2369834 37.53387827 -22.24006848 41.11364523 -24.8125 45.8125 C-27.87199037 51.48334562 -29.92397852 56.77193556 -32 63 C-13.85 63 4.3 63 23 63 C15.38927452 42.70473205 6.40806 27.45271792 -10 13.4375 C-12 11 -12 11 -12.5625 7.4375 C-12 4 -12 4 -10.5 1.5625 C-7.06409509 -0.58494057 -3.90603954 -0.67133611 0 0 Z M-35 79 C-35 89.23 -35 99.46 -35 110 C-31.04 111.98 -31.04 111.98 -27 114 C-21.72334606 118.4558411 -19.12500116 123.01670049 -18.0625 129.8125 C-17.5288437 136.92080195 -20.73067377 141.96665247 -24.375 147.8125 C-26.26875833 150.74181819 -26.26875833 150.74181819 -25.625 153.1875 C-21.16753238 158.15929081 -15.47805052 160.62041581 -8.921875 161.3359375 C0.80329282 161.45570558 8.70391103 159.80968304 16 153 C14.91995649 149.17075481 13.45293251 145.96427048 11.4375 142.5625 C8.46888586 137.31033652 7.44521255 132.90047977 8.6875 126.9375 C10.63467002 120.25780416 14.52039992 116.02582863 20 112 C21.65 111.34 23.3 110.68 25 110 C25 99.77 25 89.54 25 79 C5.2 79 -14.6 79 -35 79 Z M-48 129 C-49.01973129 132.05919388 -49.11533602 134.12418025 -49.09765625 137.32421875 C-49.09443359 138.35224609 -49.09121094 139.38027344 -49.08789062 140.43945312 C-49.07951172 141.51130859 -49.07113281 142.58316406 -49.0625 143.6875 C-49.05798828 144.77095703 -49.05347656 145.85441406 -49.04882812 146.97070312 C-49.03703743 149.64719085 -49.02058063 152.32356777 -49 155 C-44.710914 151.06576644 -41.76630878 146.83294467 -38.75 141.875 C-38.30398437 141.15957031 -37.85796875 140.44414062 -37.3984375 139.70703125 C-35.60020119 136.79170875 -34.08873446 134.26620337 -33 131 C-33.86164502 128.41506494 -34.59724145 127.2685057 -36.875 125.75 C-41.99524399 123.94285506 -44.32510924 125.52375199 -48 129 Z M26 126.5 C23.65679378 128.87997624 23.65679378 128.87997624 24.07421875 132.17578125 C25.190959 136.78881375 27.10674597 139.85144529 29.8125 143.6875 C30.25142578 144.33783203 30.69035156 144.98816406 31.14257812 145.65820312 C33.51659083 149.11868822 35.97763679 152.0682155 39 155 C39.08732726 151.10430865 39.14050185 147.20887018 39.1875 143.3125 C39.21263672 142.20970703 39.23777344 141.10691406 39.26367188 139.97070312 C39.27333984 138.90400391 39.28300781 137.83730469 39.29296875 136.73828125 C39.3086792 135.75899658 39.32438965 134.77971191 39.34057617 133.77075195 C38.93486793 130.47011913 38.01639509 128.63006791 36 126 C31.85617358 124.69546205 29.90947358 124.54526321 26 126.5 Z " fill="url(#grad)" transform="translate(258,0)"/>
<path d="M0 0 C6.04774109 4.9481518 9.84192457 11.50602681 10.6875 19.3125 C10.74247696 23.14027108 10.56022622 26.27815782 8 29.3125 C4.3806896 30.8776072 1.32488349 30.8491471 -2.41015625 29.625 C-5.0890954 27.77669702 -5.13303229 26.14440782 -5.75 23 C-6.94661786 18.11754318 -8.00237909 15.2512188 -12.3125 12.3125 C-16.38534906 11.12767118 -18.54861411 11.04807796 -22.5625 12.4375 C-26.9080767 15.40039321 -28.17850144 18.44633151 -29.25 23.4375 C-29.87459776 26.12885621 -30.20022945 27.1841908 -32.0625 29.3125 C-35.09494383 30.66025281 -37.02210136 30.78255695 -40.3125 30.3125 C-43.1875 28.9375 -43.1875 28.9375 -45.3125 26.3125 C-46.79513451 19.24742424 -44.81760313 12.46452467 -41.3125 6.3125 C-36.75607531 0.27956301 -30.95558515 -3.32854825 -23.75 -5.4375 C-15.03165511 -6.33168922 -7.2934573 -5.05037515 0 0 Z " fill="url(#grad)" transform="translate(353.3125,281.6875)"/>
<path d="M0 0 C2.5 1.3125 2.5 1.3125 4 4 C4.31868254 7.6914061 4.22932824 11.30526726 4 15 C4.74765625 14.95359375 5.4953125 14.9071875 6.265625 14.859375 C14.25453113 14.56658786 14.25453113 14.56658786 17.6875 16.5625 C19.50461526 19.93714263 19.4723305 22.22135599 19 26 C17.23984869 29.1850357 16.50109084 29.83296972 13 31 C11.43881572 31.06740865 9.8749748 31.08514456 8.3125 31.0625 C7.10013672 31.04896484 7.10013672 31.04896484 5.86328125 31.03515625 C5.24839844 31.02355469 4.63351563 31.01195313 4 31 C4.05220703 32.01320313 4.05220703 32.01320313 4.10546875 33.046875 C4.13253906 33.93890625 4.15960938 34.8309375 4.1875 35.75 C4.23970703 37.07257813 4.23970703 37.07257813 4.29296875 38.421875 C3.94170344 41.51300975 3.16568551 42.7944858 1 45 C-2.97344161 46.10373378 -5.08999772 46.41543583 -8.875 44.6875 C-11 43 -11 43 -12 41 C-12.06996014 39.29297265 -12.08440154 37.58331997 -12.0625 35.875 C-12.05347656 34.96492188 -12.04445312 34.05484375 -12.03515625 33.1171875 C-12.02355469 32.41851562 -12.01195312 31.71984375 -12 31 C-12.88751953 31.05220703 -12.88751953 31.05220703 -13.79296875 31.10546875 C-18.71920277 31.27423044 -22.00379636 31.24691546 -26 28 C-27.42662219 25.14675563 -27.31033868 23.16545451 -27 20 C-25.6875 17.125 -25.6875 17.125 -23 15 C-19.2972193 14.57910838 -15.70972387 14.7121766 -12 15 C-12.02320313 14.32453125 -12.04640625 13.6490625 -12.0703125 12.953125 C-12.09738281 11.61507812 -12.09738281 11.61507812 -12.125 10.25 C-12.14820313 9.36828125 -12.17140625 8.4865625 -12.1953125 7.578125 C-11.98870725 4.85093574 -11.47305841 3.28684592 -10 1 C-6.78373469 -0.60813266 -3.48776713 -0.45492615 0 0 Z " fill="url(#grad)" transform="translate(146,37)"/>
<path d="M0 0 C2.5 1.875 2.5 1.875 4 5 C4.3080206 8.36255818 4.23524404 11.6347033 4 15 C4.74765625 14.94199219 5.4953125 14.88398438 6.265625 14.82421875 C14.31152433 14.45562389 14.31152433 14.45562389 17.6875 17.125 C19.23913521 20.52381999 19.69116287 22.31379803 19 26 C17.125 28.875 17.125 28.875 14 31 C10.62352309 31.4072392 7.3825236 31.29556031 4 31 C4.05220703 32.01320313 4.05220703 32.01320313 4.10546875 33.046875 C4.13253906 33.93890625 4.15960938 34.8309375 4.1875 35.75 C4.23970703 37.07257812 4.23970703 37.07257812 4.29296875 38.421875 C3.94170344 41.51300975 3.16568551 42.7944858 1 45 C-2.97344161 46.10373378 -5.08999772 46.41543583 -8.875 44.6875 C-11 43 -11 43 -12 41 C-12.06996014 39.29297265 -12.08440154 37.58331997 -12.0625 35.875 C-12.05347656 34.96492188 -12.04445313 34.05484375 -12.03515625 33.1171875 C-12.02355469 32.41851562 -12.01195312 31.71984375 -12 31 C-12.66386719 31.05800781 -13.32773437 31.11601562 -14.01171875 31.17578125 C-21.20127796 31.54313099 -21.20127796 31.54313099 -25.125 28.875 C-27.34903824 25.46480804 -27.74812849 23.99001861 -27 20 C-25.6875 17.125 -25.6875 17.125 -23 15 C-19.2972193 14.57910838 -15.70972387 14.7121766 -12 15 C-12.04640625 14.25234375 -12.0928125 13.5046875 -12.140625 12.734375 C-12.43234391 4.77461617 -12.43234391 4.77461617 -10.5 1.3125 C-6.930506 -0.56148435 -3.93866806 -0.89588556 0 0 Z " fill="url(#grad)" transform="translate(341,0)"/>
<path d="M0 0 C2.5 1.875 2.5 1.875 4 5 C4.3080206 8.36255818 4.23524404 11.6347033 4 15 C4.74765625 14.94199219 5.4953125 14.88398437 6.265625 14.82421875 C14.25504079 14.45821148 14.25504079 14.45821148 17.75 17 C19.39870735 20.95689765 19.62470569 23.98602123 18 28 C13.53193247 31.48727221 9.41490868 31.28008148 4 31 C4.02320313 31.60328125 4.04640625 32.2065625 4.0703125 32.828125 C4.09738281 34.02695313 4.09738281 34.02695313 4.125 35.25 C4.14820313 36.03890625 4.17140625 36.8278125 4.1953125 37.640625 C3.97676654 40.28066023 3.47260933 41.80307794 2 44 C-1.64117197 45.51142987 -3.94462782 46.25797987 -7.8125 45.3125 C-10 44 -10 44 -12 41 C-12.1953125 38.51953125 -12.1953125 38.51953125 -12.125 35.8125 C-12.10695313 34.91144531 -12.08890625 34.01039062 -12.0703125 33.08203125 C-12.04710937 32.39496094 -12.02390625 31.70789063 -12 31 C-12.88751953 31.05220703 -12.88751953 31.05220703 -13.79296875 31.10546875 C-18.71920277 31.27423044 -22.00379636 31.24691546 -26 28 C-27.54586876 24.90826248 -27.29359521 22.40570448 -27 19 C-25.6875 16.5625 -25.6875 16.5625 -23 15 C-19.30892873 14.67603547 -15.69472631 14.77067216 -12 15 C-12.04640625 14.25234375 -12.0928125 13.5046875 -12.140625 12.734375 C-12.43234391 4.77461617 -12.43234391 4.77461617 -10.5 1.3125 C-6.930506 -0.56148435 -3.93866806 -0.89588556 0 0 Z " fill="url(#grad)" transform="translate(393,56)"/>
<path d="M0 0 C1.94140625 0.34375 1.94140625 0.34375 4.44140625 1.90625 C6.50992243 5.2675888 6.42645636 7.46334911 5.94140625 11.34375 C4.81640625 13.71875 4.81640625 13.71875 2.94140625 15.34375 C-0.74971301 16.54737584 -2.35458326 16.68793291 -5.87109375 14.96875 C-8.05859375 13.34375 -8.05859375 13.34375 -9.05859375 12.34375 C-9.26171875 10.3828125 -9.26171875 10.3828125 -9.30859375 7.96875 C-9.334375 7.17726563 -9.36015625 6.38578125 -9.38671875 5.5703125 C-9.05859375 3.34375 -9.05859375 3.34375 -7.7890625 1.58203125 C-5.32331972 -0.18239417 -2.95993875 -0.13082602 0 0 Z " fill="url(#grad)" transform="translate(216.05859375,323.65625)"/>
</svg>
